<?xml version="1.0" encoding="utf-8"?>
<!-- Generator: Adobe Illustrator 27.2.0, SVG Export Plug-In . SVG Version: 6.00 Build 0)  -->
<svg version="1.1" xmlns="http://www.w3.org/2000/svg" xmlns:xlink="http://www.w3.org/1999/xlink" x="0px" y="0px"
	 viewBox="0 0 500 500" style="enable-background:new 0 0 500 500;" xml:space="preserve">
<style type="text/css">
	.st0{fill:#1B1F66;}
	.st1{display:none;}
	.st2{display:inline;fill:#FAD761;}
	.st3{fill:#464A9E;}
	.st4{fill:url(#SVGID_1_);}
	.st5{fill:url(#SVGID_00000049181083548366254470000007209651602650374821_);}
</style>
<g id="Layer_1">
</g>
<g id="Layer_3">
	<rect class="st0" width="500" height="500"/>
</g>
<g id="Layer_2_copy">
</g>
<g id="Layer_2" class="st1">
	<path class="st2" d="M120.01,74.95c-4.82,3.94-10.45,9.17-12.95,17.5c-0.81,2.71-2.51,8.63-0.31,15.13
		c3.19,9.46,12.88,15.01,20.75,16.36c10.65,1.82,20.79-3.6,28.31-7.62c0.99-0.53,1.8-0.99,2.33-1.3c0,0,24.94-15.34,53.38-25.94
		c16.58-6.18,42.05-15.33,72.49-10.33c12.92,2.12,27.12,4.68,35.38,16.86c9.83,14.51,4.13,32.19,3.69,33.49
		c-3.54,10.44-10.86,16.92-21.51,24.53c-25.53,18.23-40.12,21.38-71.74,38.3c-28.77,15.39-37.87,24.1-42.44,28.9
		c-6.02,6.3-16,16.98-21.61,33.38c-4.32,12.62-3.36,24.98-1.26,49.18c0.16,1.79,3.76,40.41,18.99,73.83
		c1.8,3.94,5.04,10.63,11.88,13.23c7.69,2.92,18-0.04,22.55-6.65c3.64-5.29,2.76-11.7,2.29-14.84
		c-5.51-36.54-13.67-51.55-12.8-72.87c0.22-5.53,1.24-24.4,13.91-40.9c7.91-10.3,17.06-15.38,25.88-20.06
		c48.38-25.67,60.91-25.59,84.87-41.34c16.61-10.91,33.45-21.98,43.49-43.93c2.35-5.13,13.94-31.87,3.36-62.78
		c-11.54-33.69-41-47.69-50.2-52.06c-18.84-8.95-35.45-9.66-50.32-10.3c-24.31-1.04-42.18,3.4-64.69,9
		c-5.29,1.32-28.78,7.3-57.56,20.23C152.53,55.58,135.9,61.97,120.01,74.95z"/>
	<circle class="st2" cx="217.77" cy="442.56" r="26.56"/>
</g>
<g id="Layer_2_copy_2">
	<g>
		<path class="st3" d="M136.79,85.62c-4.82,3.94-10.45,9.17-12.95,17.5c-0.81,2.71-2.51,8.63-0.31,15.13
			c3.19,9.46,12.88,15.01,20.75,16.36c10.65,1.82,20.79-3.6,28.31-7.62c0.99-0.53,1.8-0.99,2.33-1.3c0,0,24.94-15.34,53.38-25.94
			c16.58-6.18,42.05-15.33,72.49-10.33c12.92,2.12,27.12,4.68,35.38,16.86c9.83,14.51,4.13,32.19,3.69,33.49
			c-3.54,10.44-10.86,16.92-21.51,24.53c-25.53,18.23-40.12,21.38-71.74,38.3c-28.77,15.39-37.87,24.1-42.44,28.9
			c-6.02,6.3-16,16.98-21.61,33.38c-4.32,12.62-3.36,24.98-1.26,49.18c0.16,1.79,3.76,40.41,18.99,73.83
			c1.8,3.94,5.04,10.63,11.88,13.23c7.69,2.92,18-0.04,22.55-6.65c3.64-5.29,2.76-11.7,2.29-14.84
			c-5.51-36.55-13.67-51.55-12.8-72.87c0.22-5.53,1.24-24.4,13.91-40.9c7.91-10.3,17.06-15.38,25.88-20.06
			c48.38-25.67,60.91-25.59,84.87-41.34c16.61-10.91,33.45-21.98,43.49-43.93c2.35-5.13,13.94-31.87,3.36-62.78
			c-11.54-33.69-41-47.69-50.2-52.06c-18.84-8.95-35.45-9.66-50.32-10.3c-24.31-1.04-42.18,3.4-64.69,9
			c-5.29,1.32-28.78,7.3-57.56,20.23C169.31,66.25,152.68,72.64,136.79,85.62z"/>
		<circle class="st3" cx="225.66" cy="451.65" r="22.92"/>
		<linearGradient id="SVGID_1_" gradientUnits="userSpaceOnUse" x1="104.8199" y1="208.9162" x2="382.4678" y2="208.9162">
			<stop  offset="0.0882" style="stop-color:#FEF093"/>
			<stop  offset="0.1747" style="stop-color:#FEED85"/>
			<stop  offset="0.5624" style="stop-color:#FEDF4A"/>
			<stop  offset="0.8486" style="stop-color:#FED625"/>
			<stop  offset="1" style="stop-color:#FED317"/>
		</linearGradient>
		<path class="st4" d="M114.24,75.81c-4.82,3.94-10.45,9.17-12.95,17.5c-0.81,2.71-2.51,8.63-0.31,15.13
			c3.19,9.46,12.88,15.01,20.75,16.36c10.65,1.82,20.79-3.6,28.31-7.62c0.99-0.53,1.8-0.99,2.33-1.3c0,0,24.94-15.34,53.38-25.94
			c16.58-6.18,42.05-15.33,72.49-10.33c12.92,2.12,27.12,4.68,35.38,16.86c9.83,14.51,4.13,32.19,3.69,33.49
			c-3.54,10.44-10.86,16.92-21.51,24.53c-25.53,18.23-40.12,21.38-71.74,38.3c-28.77,15.39-37.87,24.1-42.44,28.9
			c-6.02,6.3-16,16.98-21.61,33.38c-4.32,12.62-3.36,24.98-1.26,49.18c0.16,1.79,3.76,40.41,18.99,73.83
			c1.8,3.94,5.04,10.63,11.88,13.23c7.69,2.92,18-0.04,22.55-6.65c3.64-5.29,2.76-11.7,2.29-14.84
			c-5.51-36.54-13.67-51.55-12.8-72.87c0.22-5.53,1.24-24.4,13.91-40.9c7.91-10.3,17.06-15.38,25.88-20.06
			c48.38-25.67,60.91-25.59,84.87-41.34c16.61-10.91,33.45-21.98,43.49-43.93c2.35-5.13,13.94-31.87,3.36-62.78
			c-11.54-33.69-41-47.69-50.2-52.06c-18.84-8.95-35.45-9.66-50.32-10.3c-24.31-1.04-42.18,3.4-64.69,9
			c-5.29,1.32-28.78,7.3-57.56,20.23C146.76,56.44,130.13,62.83,114.24,75.81z"/>
		
			<linearGradient id="SVGID_00000119117111347272760370000001546759121882158469_" gradientUnits="userSpaceOnUse" x1="184.6964" y1="440.9264" x2="230.6516" y2="440.9264">
			<stop  offset="0" style="stop-color:#FEF093"/>
			<stop  offset="1" style="stop-color:#FED317"/>
		</linearGradient>
		<circle style="fill:url(#SVGID_00000119117111347272760370000001546759121882158469_);" cx="207.67" cy="440.93" r="22.97"/>
	</g>
</g>
</svg>
